<svg width="320" height="320" viewBox="0 0 320 320" fill="none" xmlns="http://www.w3.org/2000/svg">
<path d="M190 30H130V40H190V30Z" fill="#FFC110"/>
<path d="M140 40H110V50H140V40Z" fill="#FFC110"/>
<path d="M180 40H140V50H180V40Z" fill="#DB8323"/>
<path d="M210 40H180V50H210V40Z" fill="#FFC110"/>
<path d="M120 50H90V60H120V50Z" fill="#FFC110"/>
<path d="M140 50H120V60H140V50Z" fill="#DB8323"/>
<path d="M180 50H140V60H180V50Z" fill="#FFC110"/>
<path d="M200 50H180V60H200V50Z" fill="#DB8323"/>
<path d="M230 50H200V60H230V50Z" fill="#FFC110"/>
<path d="M100 60H80V70H100V60Z" fill="#FFC110"/>
<path d="M120 60H100V70H120V60Z" fill="#DB8323"/>
<path d="M200 60H120V70H200V60Z" fill="#FFC110"/>
<path d="M220 60H200V70H220V60Z" fill="#DB8323"/>
<path d="M240 60H220V70H240V60Z" fill="#FFC110"/>
<path d="M90 70H80V80H90V70Z" fill="#FFC110"/>
<path d="M100 70H90V80H100V70Z" fill="#DB8323"/>
<path d="M220 70H100V80H220V70Z" fill="#FFC110"/>
<path d="M230 70H220V80H230V70Z" fill="#DB8323"/>
<path d="M240 70H230V80H240V70Z" fill="#FFC110"/>
<path d="M90 80H70V90H90V80Z" fill="#FFC110"/>
<path d="M100 80H90V90H100V80Z" fill="#DB8323"/>
<path d="M220 80H100V90H220V80Z" fill="#FFC110"/>
<path d="M230 80H220V90H230V80Z" fill="#DB8323"/>
<path d="M250 80H230V90H250V80Z" fill="#FFC110"/>
<path d="M80 90H70V100H80V90Z" fill="#FFC110"/>
<path d="M90 90H80V100H90V90Z" fill="#DB8323"/>
<path d="M180 90H90V100H180V90Z" fill="#FFC110"/>
<path d="M210 90H180V100H210V90Z" fill="#FFF671"/>
<path d="M230 90H210V100H230V90Z" fill="#FFC110"/>
<path d="M240 90H230V100H240V90Z" fill="#DB8323"/>
<path d="M250 90H240V100H250V90Z" fill="#FFC110"/>
<path d="M80 100H60V110H80V100Z" fill="#FFC110"/>
<path d="M90 100H80V110H90V100Z" fill="#DB8323"/>
<path d="M120 100H90V110H120V100Z" fill="#FFC110"/>
<path d="M150 100H120V110H150V100Z" fill="#FFF671"/>
<path d="M230 100H150V110H230V100Z" fill="#FFC110"/>
<path d="M240 100H230V110H240V100Z" fill="#DB8323"/>
<path d="M260 100H240V110H260V100Z" fill="#FFC110"/>
<path d="M70 110H60V120H70V110Z" fill="#FFC110"/>
<path d="M80 110H70V120H80V110Z" fill="#DB8323"/>
<path d="M240 110H80V120H240V110Z" fill="#FFC110"/>
<path d="M250 110H240V120H250V110Z" fill="#DB8323"/>
<path d="M260 110H250V120H260V110Z" fill="#FFC110"/>
<path d="M70 120H60V130H70V120Z" fill="#FFC110"/>
<path d="M80 120H70V130H80V120Z" fill="#DB8323"/>
<path d="M240 120H80V130H240V120Z" fill="#FFC110"/>
<path d="M250 120H240V130H250V120Z" fill="#DB8323"/>
<path d="M260 120H250V130H260V120Z" fill="#FFC110"/>
<path d="M70 130H60V140H70V130Z" fill="#FFC110"/>
<path d="M80 130H70V140H80V130Z" fill="#DB8323"/>
<path d="M240 130H80V140H240V130Z" fill="#FFC110"/>
<path d="M250 130H240V140H250V130Z" fill="#DB8323"/>
<path d="M260 130H250V140H260V130Z" fill="#FFC110"/>
<path d="M70 140H60V150H70V140Z" fill="#FFC110"/>
<path d="M80 140H70V150H80V140Z" fill="#DB8323"/>
<path d="M240 140H80V150H240V140Z" fill="#FFC110"/>
<path d="M250 140H240V150H250V140Z" fill="#DB8323"/>
<path d="M260 140H250V150H260V140Z" fill="#FFC110"/>
<path d="M80 150H60V160H80V150Z" fill="#FFC110"/>
<path d="M90 150H80V160H90V150Z" fill="#DB8323"/>
<path d="M260 150H90V160H260V150Z" fill="#FFC110"/>
<path d="M80 160H70V170H80V160Z" fill="#FFC110"/>
<path d="M90 160H80V170H90V160Z" fill="#DB8323"/>
<path d="M250 160H90V170H250V160Z" fill="#FFC110"/>
<path d="M90 170H70V180H90V170Z" fill="#FFC110"/>
<path d="M100 170H90V180H100V170Z" fill="#DB8323"/>
<path d="M250 170H100V180H250V170Z" fill="#FFC110"/>
<path d="M90 180H80V190H90V180Z" fill="#FFC110"/>
<path d="M100 180H90V190H100V180Z" fill="#DB8323"/>
<path d="M120 180H100V190H120V180Z" fill="#FFC110"/>
<path d="M130 180H120V190H130V180Z" fill="#FFF671"/>
<path d="M140 180H130V190H140V180Z" fill="#FFC110"/>
<path d="M180 180H140V190H180V180Z" fill="#FFF671"/>
<path d="M220 180H180V190H220V180Z" fill="#FFC110"/>
<path d="M230 180H220V190H230V180Z" fill="#DB8323"/>
<path d="M240 180H230V190H240V180Z" fill="#FFC110"/>
<path d="M100 190H80V200H100V190Z" fill="#FFC110"/>
<path d="M120 190H100V200H120V190Z" fill="#DB8323"/>
<path d="M200 190H120V200H200V190Z" fill="#FFC110"/>
<path d="M220 190H200V200H220V190Z" fill="#DB8323"/>
<path d="M240 190H220V200H240V190Z" fill="#FFC110"/>
<path d="M120 200H90V210H120V200Z" fill="#FFC110"/>
<path d="M140 200H120V210H140V200Z" fill="#DB8323"/>
<path d="M180 200H140V210H180V200Z" fill="#FFC110"/>
<path d="M200 200H180V210H200V200Z" fill="#DB8323"/>
<path d="M230 200H200V210H230V200Z" fill="#FFC110"/>
<path d="M140 210H110V220H140V210Z" fill="#FFC110"/>
<path d="M180 210H140V220H180V210Z" fill="#DB8323"/>
<path d="M210 210H180V220H210V210Z" fill="#FFC110"/>
<path d="M190 220H130V230H190V220Z" fill="#FFC110"/>
</svg>
