<svg width="320" height="320" viewBox="0 0 320 320" fill="none" xmlns="http://www.w3.org/2000/svg">
<rect x="80" y="140" width="80" height="10" fill="#F3322C"/>
<rect x="170" y="140" width="80" height="10" fill="#F3322C"/>
<rect x="80" y="160" width="10" height="10" fill="#F3322C"/>
<rect x="80" y="150" width="10" height="10" fill="#F3322C"/>
<rect x="170" y="160" width="10" height="10" fill="#F3322C"/>
<rect x="170" y="150" width="10" height="10" fill="#F3322C"/>
<rect x="50" y="170" width="40" height="10" fill="#F3322C"/>
<rect x="50" y="180" width="10" height="10" fill="#F3322C"/>
<rect x="50" y="190" width="10" height="10" fill="#F3322C"/>
<rect x="80" y="180" width="10" height="10" fill="#F3322C"/>
<rect x="170" y="180" width="10" height="10" fill="#F3322C"/>
<rect x="80" y="190" width="10" height="10" fill="#F3322C"/>
<rect x="170" y="190" width="10" height="10" fill="#F3322C"/>
<rect x="240" y="160" width="10" height="10" fill="#F3322C"/>
<rect x="240" y="170" width="10" height="10" fill="#F3322C"/>
<rect x="240" y="180" width="10" height="10" fill="#F3322C"/>
<rect x="240" y="190" width="10" height="10" fill="#F3322C"/>
<rect x="170" y="200" width="10" height="10" fill="#F3322C"/>
<rect x="240" y="200" width="10" height="10" fill="#F3322C"/>
<rect x="150" y="160" width="10" height="10" fill="#F3322C"/>
<rect x="240" y="150" width="10" height="10" fill="#F3322C"/>
<rect x="150" y="150" width="10" height="10" fill="#F3322C"/>
<rect x="150" y="170" width="30" height="10" fill="#F3322C"/>
<rect x="150" y="180" width="10" height="10" fill="#F3322C"/>
<rect x="150" y="190" width="10" height="10" fill="#F3322C"/>
<rect x="80" y="200" width="10" height="10" fill="#F3322C"/>
<rect x="150" y="200" width="10" height="10" fill="#F3322C"/>
<rect x="170" y="210" width="80" height="10" fill="#F3322C"/>
<rect x="80" y="210" width="80" height="10" fill="#F3322C"/>
<rect x="90" y="160" width="20" height="10" fill="white"/>
<rect x="110" y="160" width="40" height="10" fill="black"/>
<rect x="90" y="150" width="20" height="10" fill="white"/>
<rect x="110" y="150" width="40" height="10" fill="black"/>
<rect x="110" y="170" width="40" height="10" fill="black"/>
<rect x="180" y="160" width="20" height="10" fill="white"/>
<rect x="200" y="160" width="40" height="10" fill="black"/>
<rect x="180" y="150" width="20" height="10" fill="white"/>
<rect x="200" y="150" width="40" height="10" fill="black"/>
<rect x="90" y="170" width="20" height="10" fill="white"/>
<rect x="180" y="170" width="20" height="10" fill="white"/>
<rect x="200" y="170" width="40" height="10" fill="black"/>
<rect x="90" y="180" width="20" height="10" fill="white"/>
<rect x="110" y="180" width="40" height="10" fill="black"/>
<rect x="180" y="180" width="20" height="10" fill="white"/>
<rect x="200" y="180" width="40" height="10" fill="black"/>
<rect x="90" y="190" width="20" height="10" fill="white"/>
<rect x="110" y="190" width="40" height="10" fill="black"/>
<rect x="90" y="200" width="20" height="10" fill="white"/>
<rect x="110" y="200" width="40" height="10" fill="black"/>
<rect x="180" y="190" width="20" height="10" fill="white"/>
<rect x="200" y="190" width="40" height="10" fill="black"/>
<rect x="180" y="200" width="20" height="10" fill="white"/>
<rect x="200" y="200" width="40" height="10" fill="black"/>
</svg>
