<svg width="310" height="170" viewBox="0 0 310 170" fill="none" xmlns="http://www.w3.org/2000/svg">
<g clip-path="url(#clip0_147_400)">
<rect x="55" width="80" height="10" fill="white"/>
<rect x="175" width="80" height="10" fill="white"/>
<rect x="45" y="10" width="10" height="10" fill="#EACA00"/>
<rect x="55" y="10" width="10" height="10" fill="white"/>
<rect x="95" y="10" width="10" height="10" fill="white"/>
<rect x="135" y="10" width="10" height="10" fill="white"/>
<rect x="165" y="10" width="110" height="10" fill="white"/>
<rect x="205" y="10" width="10" height="10" fill="white"/>
<rect x="245" y="10" width="10" height="10" fill="white"/>
<rect x="255" y="10" width="10" height="10" fill="#EACA00"/>
<rect x="45" y="20" width="10" height="10" fill="#EACA00"/>
<rect x="55" y="20" width="200" height="10" fill="white"/>
<rect x="255" y="20" width="10" height="10" fill="#EACA00"/>
<rect x="45" y="30" width="10" height="10" fill="#EACA00"/>
<rect x="55" y="30" width="10" height="10" fill="white"/>
<rect x="95" y="30" width="10" height="10" fill="white"/>
<rect x="135" y="30" width="152" height="10" fill="white"/>
<rect x="205" y="30" width="10" height="10" fill="white"/>
<rect x="245" y="30" width="10" height="10" fill="white"/>
<rect x="255" y="30" width="10" height="10" fill="#EACA00"/>
<rect x="45" y="40" width="10" height="10" fill="#EACA00"/>
<rect x="55" y="40" width="200" height="10" fill="white"/>
<rect x="255" y="40" width="10" height="10" fill="#EACA00"/>
<rect x="45" y="50" width="10" height="10" fill="#EACA00"/>
<rect x="55" y="50" width="10" height="10" fill="white"/>
<rect x="95" y="50" width="10" height="10" fill="white"/>
<rect x="135" y="50" width="152" height="10" fill="white"/>
<rect x="205" y="50" width="10" height="10" fill="white"/>
<rect x="245" y="50" width="10" height="10" fill="white"/>
<rect x="255" y="50" width="10" height="10" fill="#EACA00"/>
<rect x="45" y="60" width="10" height="10" fill="#EACA00"/>
<rect x="55" y="60" width="200" height="10" fill="white"/>
<rect x="255" y="60" width="10" height="10" fill="#EACA00"/>
<rect x="45" y="70" width="10" height="10" fill="#EACA00"/>
<rect x="55" y="70" width="10" height="10" fill="white"/>
<rect x="95" y="70" width="150" height="10" fill="white"/>
<rect x="245" y="70" width="10" height="10" fill="white"/>
<rect x="255" y="70" width="10" height="10" fill="#EACA00"/>
<rect x="45" y="80" width="10" height="10" fill="#EACA00"/>
<rect x="55" y="80" width="200" height="10" fill="white"/>
<rect x="255" y="80" width="10" height="10" fill="#EACA00"/>
<rect x="45" y="90" width="10" height="10" fill="#EACA00"/>
<rect x="55" y="90" width="10" height="10" fill="white"/>
<rect x="95" y="90" width="150" height="10" fill="white"/>
<rect x="245" y="90" width="10" height="10" fill="white"/>
<rect x="255" y="90" width="10" height="10" fill="#EACA00"/>
<rect x="45" y="100" width="10" height="10" fill="#EACA00"/>
<rect x="55" y="100" width="200" height="10" fill="white"/>
<rect x="255" y="100" width="10" height="10" fill="#EACA00"/>
<rect x="45" y="110" width="10" height="10" fill="#EACA00"/>
<rect x="55" y="110" width="10" height="10" fill="white"/>
<rect x="95" y="110" width="150" height="10" fill="white"/>
<rect x="245" y="110" width="10" height="10" fill="white"/>
<rect x="255" y="110" width="10" height="10" fill="#EACA00"/>
<rect x="45" y="120" width="10" height="10" fill="#EACA00"/>
<rect x="55" y="120" width="100" height="10" fill="white"/>
<rect x="155" y="120" width="100" height="10" fill="white"/>
<rect x="255" y="120" width="10" height="10" fill="#EACA00"/>
<rect x="45" y="130" width="10" height="10" fill="#EACA00"/>
<rect x="55" y="130" width="200" height="10" fill="white"/>
<rect x="255" y="130" width="10" height="10" fill="#EACA00"/>
<rect x="45" y="140" width="10" height="10" fill="#EACA00"/>
<rect x="55" y="140" width="200" height="10" fill="white"/>
<rect x="255" y="140" width="10" height="10" fill="#EACA00"/>
<rect x="45" y="150" width="100" height="10" fill="#EACA00"/>
<rect x="145" y="150" width="20" height="10" fill="white"/>
<rect x="165" y="150" width="100" height="10" fill="#EACA00"/>
<path d="M135 160H145H165H175V170H135V160Z" fill="#F0D94C"/>
<path d="M165 160H175V150H165V160Z" fill="#F0D94C"/>
<path d="M135 150V160H145V150H135Z" fill="#F0D94C"/>
<rect y="10" width="45" height="150" fill="#EACA00"/>
<rect x="265" y="10" width="45" height="150" fill="#EACA00"/>
<rect x="10" width="125" height="150" fill="white"/>
<rect x="255" width="45" height="150" fill="white"/>
<rect x="195" y="10" width="40" height="10" fill="black"/>
<rect x="25" y="10" width="40" height="10" fill="black"/>
<rect x="245" y="10" width="40" height="10" fill="black"/>
<rect x="75" y="50" width="40" height="10" fill="black"/>
<rect x="195" y="30" width="40" height="10" fill="black"/>
<rect x="25" y="30" width="40" height="10" fill="black"/>
<rect x="245" y="30" width="40" height="10" fill="black"/>
<rect x="75" y="70" width="40" height="10" fill="black"/>
<rect x="195" y="50" width="40" height="10" fill="black"/>
<rect x="25" y="50" width="40" height="10" fill="black"/>
<rect x="245" y="50" width="40" height="10" fill="black"/>
<rect x="75" y="90" width="40" height="10" fill="black"/>
<rect x="245" y="70" width="40" height="10" fill="black"/>
<rect x="75" y="110" width="40" height="10" fill="black"/>
<rect x="195" y="90" width="40" height="10" fill="black"/>
<rect x="25" y="90" width="40" height="10" fill="black"/>
<rect x="195" y="70" width="40" height="10" fill="black"/>
<rect x="25" y="70" width="40" height="10" fill="black"/>
<rect x="195" y="110" width="40" height="10" fill="black"/>
<rect x="25" y="110" width="40" height="10" fill="black"/>
<rect x="75" y="9" width="40" height="32" fill="#D63C5E"/>
</g>
<defs>
<clipPath id="clip0_147_400">
<rect width="310" height="170" fill="white"/>
</clipPath>
</defs>
</svg>
